<?xml version="1.0" encoding="UTF-8" standalone="no" ?>
<!DOCTYPE svg PUBLIC "-//W3C//DTD SVG 1.1//EN" "http://www.w3.org/Graphics/SVG/1.1/DTD/svg11.dtd">
<svg xmlns="http://www.w3.org/2000/svg" xmlns:xlink="http://www.w3.org/1999/xlink" version="1.1" width="1080" height="1080" viewBox="0 0 1080 1080" xml:space="preserve">
<desc>Created with Fabric.js 5.2.4</desc>
<defs>
</defs>
<g transform="matrix(1 0 0 1 540 540)" id="9400a9e6-2011-4502-b688-45c6c6b81038"  >
<rect style="stroke: none; stroke-width: 1; stroke-dasharray: none; stroke-linecap: butt; stroke-dashoffset: 0; stroke-linejoin: miter; stroke-miterlimit: 4; fill: rgb(255,255,255); fill-rule: nonzero; opacity: 1; visibility: hidden;" vector-effect="non-scaling-stroke"  x="-540" y="-540" rx="0" ry="0" width="1080" height="1080" />
</g>
<g transform="matrix(1 0 0 1 540 540)" id="af8c8e8a-055f-4026-8d9e-4be2c5e4354b"  >
</g>
<g transform="matrix(11.72 0 0 11.72 566.11 553.09)" id="3206e525-a6e6-45ee-a510-a35508fa14e0"  >
<circle style="stroke: rgb(0,0,0); stroke-width: 0; stroke-dasharray: none; stroke-linecap: butt; stroke-dashoffset: 0; stroke-linejoin: miter; stroke-miterlimit: 4; fill: rgb(255,255,255); fill-rule: nonzero; opacity: 1;" vector-effect="non-scaling-stroke"  cx="0" cy="0" r="35" />
</g>
<g transform="matrix(2.11 0 0 2.11 540 540)" id="SVGRepo_iconCarrier"  >
<path style="stroke: none; stroke-width: 1; stroke-dasharray: none; stroke-linecap: butt; stroke-dashoffset: 0; stroke-linejoin: miter; stroke-miterlimit: 4; fill: rgb(54,54,54); fill-rule: nonzero; opacity: 1;"  transform=" translate(-113, -401)" d="M 113 145 C -28.400000000000006 145 -143 259.6 -143 401 C -143 542.4 -28.400000000000006 657 113 657 C 254.4 657 369 542.4 369 401 C 369 259.6 254.4 145 113 145 z M 41.4 508.1 L -8.5 508.1 L -8.5 348.4 L 41.4 348.4 L 41.4 508.1 z M 15.1 328.4 L 14.7 328.4 C -3.400000000000002 328.4 -15.100000000000001 316.2 -15.100000000000001 300.7 C -15.100000000000001 284.9 -3.0000000000000018 273 15.399999999999999 273 C 33.8 273 45.099999999999994 284.9 45.5 300.7 C 45.6 316.1 33.9 328.4 15.1 328.4 z M 241 508.1 L 184.4 508.1 L 184.4 425.5 C 184.4 403.9 175.6 389.1 156.1 389.1 C 141.2 389.1 132.9 399.1 129.1 408.70000000000005 C 127.69999999999999 412.1 127.89999999999999 416.90000000000003 127.89999999999999 421.80000000000007 L 127.89999999999999 508.1000000000001 L 71.8 508.1000000000001 C 71.8 508.1000000000001 72.5 361.70000000000005 71.8 348.4000000000001 L 127.9 348.4000000000001 L 127.9 373.5000000000001 C 131.20000000000002 362.5000000000001 149.1 346.9000000000001 177.7 346.9000000000001 C 213.2 346.9000000000001 241 369.9000000000001 241 419.30000000000007 L 241 508.1 z" stroke-linecap="round" />
</g>
</svg>